<svg xmlns="http://www.w3.org/2000/svg" width="190" height="28.53" viewBox="0 0 190 28.53"><defs><style>.a{fill:#ffe600;}</style></defs><g transform="translate(-44 -30)"><path class="a" d="M18,3l4.635,9.39L33,13.9l-7.5,7.3,1.77,10.32L18,26.655,8.73,31.53,10.5,21.21,3,13.9,13.365,12.39Z" transform="translate(41 27)"/><path class="a" d="M18,3l4.635,9.39L33,13.9l-7.5,7.3,1.77,10.32L18,26.655,8.73,31.53,10.5,21.21,3,13.9,13.365,12.39Z" transform="translate(81 27)"/><path class="a" d="M18,3l4.635,9.39L33,13.9l-7.5,7.3,1.77,10.32L18,26.655,8.73,31.53,10.5,21.21,3,13.9,13.365,12.39Z" transform="translate(121 27)"/><path class="a" d="M18,3l4.635,9.39L33,13.9l-7.5,7.3,1.77,10.32L18,26.655,8.73,31.53,10.5,21.21,3,13.9,13.365,12.39Z" transform="translate(161 27)"/><path class="a" d="M18,3l4.635,9.39L33,13.9l-7.5,7.3,1.77,10.32L18,26.655,8.73,31.53,10.5,21.21,3,13.9,13.365,12.39Z" transform="translate(201 27)"/></g></svg>