<svg xmlns="http://www.w3.org/2000/svg" width="191" height="30.53" viewBox="0 0 191 30.53"><defs><style>.a{fill:#ffe600;}</style></defs><g transform="translate(-44 -29)"><path class="a" d="M18,3l4.635,9.39L33,13.9l-7.5,7.3,1.77,10.32L18,26.655,8.73,31.53,10.5,21.21,3,13.9,13.365,12.39Z" transform="translate(41 27)"/><path class="a" d="M18,3l4.635,9.39L33,13.9l-7.5,7.3,1.77,10.32L18,26.655,8.73,31.53,10.5,21.21,3,13.9,13.365,12.39Z" transform="translate(81 27)"/><path class="a" d="M18,3l4.635,9.39L33,13.9l-7.5,7.3,1.77,10.32L18,26.655,8.73,31.53,10.5,21.21,3,13.9,13.365,12.39Z" transform="translate(121 27)"/><path class="a" d="M18,2a1,1,0,0,1,.9.557l4.4,8.919,9.845,1.439a1,1,0,0,1,.553,1.706l-7.123,6.938,1.681,9.8A1,1,0,0,1,26.8,32.415L18,27.785l-8.8,4.63a1,1,0,0,1-1.451-1.054l1.681-9.8L2.3,14.621a1,1,0,0,1,.553-1.706L12.7,11.476l4.4-8.919A1,1,0,0,1,18,2ZM30.852,14.6,22.49,13.379a1,1,0,0,1-.752-.547L18,5.259l-3.738,7.573a1,1,0,0,1-.752.547L5.148,14.6,11.2,20.494a1,1,0,0,1,.288.885L10.058,29.7l7.476-3.932a1,1,0,0,1,.931,0L25.942,29.7l-1.427-8.323a1,1,0,0,1,.288-.885Z" transform="translate(161 27)"/><path class="a" d="M18,2a1,1,0,0,1,.9.557l4.4,8.919,9.845,1.439a1,1,0,0,1,.553,1.706l-7.123,6.938,1.681,9.8A1,1,0,0,1,26.8,32.415L18,27.785l-8.8,4.63a1,1,0,0,1-1.451-1.054l1.681-9.8L2.3,14.621a1,1,0,0,1,.553-1.706L12.7,11.476l4.4-8.919A1,1,0,0,1,18,2ZM30.852,14.6,22.49,13.379a1,1,0,0,1-.752-.547L18,5.259l-3.738,7.573a1,1,0,0,1-.752.547L5.148,14.6,11.2,20.494a1,1,0,0,1,.288.885L10.058,29.7l7.476-3.932a1,1,0,0,1,.931,0L25.942,29.7l-1.427-8.323a1,1,0,0,1,.288-.885Z" transform="translate(201 27)"/></g></svg>